<svg width="1728" height="361" viewBox="0 0 1728 361" fill="none" xmlns="http://www.w3.org/2000/svg">
<path d="M-2 127.221L56.9 148.425C115.8 169.629 233.6 212.036 351.4 261.466C469.2 311.427 587 367.087 704.8 360.461C822.6 353.834 940.4 282.272 1058.2 268.623C1176 254.443 1293.8 296.85 1411.6 268.623C1529.4 239.865 1647.2 141.799 1706.1 91.8379L1765 42.4071V0H1706.1C1647.2 0 1529.4 0 1411.6 0C1293.8 0 1176 0 1058.2 0C940.4 0 822.6 0 704.8 0C587 0 469.2 0 351.4 0C233.6 0 115.8 0 56.9 0H-2V127.221Z" fill="#F4F4F4"/>
</svg>
